<?xml version="1.0" standalone="no"?>
<!DOCTYPE svg PUBLIC "-//W3C//DTD SVG 20010904//EN"
 "http://www.w3.org/TR/2001/REC-SVG-20010904/DTD/svg10.dtd">
<svg version="1.0" xmlns="http://www.w3.org/2000/svg"
 width="457.000000pt" height="457.000000pt" viewBox="0 0 457.000000 457.000000"
 preserveAspectRatio="xMidYMid meet">
<metadata>
Created by potrace 1.11, written by Peter Selinger 2001-2013
</metadata>
<g transform="translate(0.000000,457.000000) scale(0.100000,-0.100000)"
fill="#000000" stroke="none">
<path d="M40 4360 c-26 -6 -26 -8 -16 -75 12 -80 43 -183 67 -221 10 -17 19
-39 19 -48 0 -9 3 -16 8 -16 4 0 18 -21 32 -47 13 -27 27 -50 30 -53 14 -14
50 -70 50 -80 0 -5 4 -10 8 -10 5 0 17 -16 28 -35 10 -19 21 -35 24 -35 3 0
14 -16 24 -35 11 -19 23 -35 28 -35 4 0 8 -4 8 -10 0 -10 11 -24 63 -83 16
-18 38 -45 50 -60 12 -16 38 -46 57 -68 19 -21 40 -44 45 -51 52 -66 175 -203
278 -310 26 -27 47 -51 47 -53 0 -2 23 -27 50 -55 27 -28 50 -56 50 -61 0 -6
4 -7 10 -4 5 3 10 2 10 -4 0 -6 17 -27 38 -48 20 -21 57 -63 82 -93 25 -30 53
-64 63 -75 10 -11 39 -47 63 -80 25 -33 54 -71 65 -85 10 -13 19 -28 19 -33 0
-5 6 -15 13 -22 28 -33 37 -45 32 -45 -3 0 2 -8 12 -19 13 -13 29 -17 58 -15
148 10 155 9 253 -42 51 -27 103 -59 117 -71 13 -13 26 -23 29 -23 5 0 58 -44
92 -76 13 -12 25 -19 28 -16 3 3 6 0 6 -6 0 -7 5 -12 12 -12 16 0 297 -287
333 -341 16 -24 28 -47 27 -51 -1 -5 3 -8 8 -8 6 0 15 -10 20 -22 12 -27 32
-61 41 -68 4 -3 17 -43 30 -89 24 -83 25 -84 57 -86 17 -1 32 1 32 5 0 8 112
5 155 -4 17 -4 44 -9 60 -12 56 -11 182 -84 237 -137 30 -28 83 -77 117 -107
64 -57 72 -74 44 -88 -19 -10 -41 -5 -58 12 -17 17 -95 124 -95 130 0 3 -18
23 -40 45 -22 22 -40 37 -40 34 0 -3 -8 4 -19 15 -10 12 -23 22 -30 22 -6 0
-11 5 -11 11 0 5 -4 8 -9 5 -5 -3 -14 1 -21 9 -7 8 -21 15 -30 15 -10 0 -20 4
-22 9 -1 6 -23 13 -48 16 -57 8 -84 13 -90 15 -7 3 -8 3 -60 -4 -58 -8 -153
-41 -158 -55 -2 -6 -8 -11 -13 -11 -5 0 -18 -9 -29 -20 -11 -11 -17 -20 -13
-20 3 0 -2 -9 -11 -19 -19 -21 -34 -91 -19 -91 4 0 22 16 38 36 30 36 68 61
108 71 37 9 97 10 97 1 0 -4 6 -5 13 -2 8 3 27 -1 43 -7 16 -7 34 -13 41 -15
14 -2 65 -38 101 -69 42 -35 75 -102 67 -133 -5 -15 -9 -34 -11 -42 -1 -8 -6
-26 -10 -39 l-7 -25 31 23 c35 24 39 22 18 -12 -7 -12 -14 -43 -15 -69 l-3
-48 30 30 c28 28 61 42 48 21 -8 -12 -14 -120 -7 -126 5 -6 10 -25 13 -57 3
-27 14 -21 29 15 14 34 32 57 46 57 5 0 21 -25 36 -56 27 -55 92 -134 110
-134 5 0 5 6 -2 13 -16 20 -23 127 -8 127 7 0 30 -16 52 -35 22 -19 51 -38 65
-41 14 -4 31 -11 38 -17 6 -5 12 -6 12 -2 0 4 6 2 14 -4 25 -21 27 5 2 30 -12
13 -28 39 -34 57 -11 32 -11 33 16 29 15 -2 34 -6 42 -10 50 -19 128 -28 136
-16 2 4 15 6 29 4 37 -4 40 11 5 24 -17 5 -30 7 -30 3 0 -4 -5 1 -11 11 -6 9
-14 15 -20 12 -5 -4 -9 1 -9 9 0 20 18 30 33 19 20 -15 73 3 105 35 19 19 21
18 121 -77 56 -53 127 -118 158 -146 31 -27 68 -61 82 -74 54 -49 133 -116
153 -130 12 -8 29 -22 38 -30 9 -9 28 -25 43 -36 34 -25 34 -34 -3 -72 l-31
-31 31 -18 c16 -10 30 -26 30 -34 0 -14 67 -43 130 -55 8 -2 15 -4 15 -5 0 -1
14 -3 30 -4 17 -1 35 -5 42 -9 6 -4 14 -3 17 2 4 6 18 6 35 1 16 -4 32 -6 35
-3 9 9 -6 33 -20 33 -8 0 -14 4 -14 8 0 4 -15 13 -32 20 -18 6 -52 29 -75 50
l-41 38 33 32 33 33 56 -55 c31 -31 56 -62 56 -71 0 -8 4 -15 9 -15 5 0 13 -9
16 -20 4 -11 10 -18 14 -15 10 6 4 87 -12 145 -6 25 -12 48 -12 52 0 3 -3 10
-7 14 -5 4 -8 16 -8 26 0 10 -4 18 -10 18 -5 0 -9 3 -9 8 4 21 -2 33 -15 30
-8 -2 -25 10 -39 26 l-25 29 -26 -27 c-15 -14 -35 -26 -44 -26 -10 0 -61 45
-115 100 -53 55 -98 100 -100 100 -2 0 -37 33 -79 73 -41 39 -108 101 -148
137 -41 36 -87 77 -103 92 -17 16 -34 28 -38 28 -15 0 -10 29 12 72 11 22 19
49 16 59 -3 10 1 26 9 36 9 12 13 13 14 5 0 -7 3 -11 8 -9 4 3 18 -17 32 -45
22 -45 25 -47 31 -26 3 12 2 28 -3 35 -5 6 -5 14 -1 16 10 7 10 48 -1 65 -4 7
-5 12 -2 12 2 0 -6 27 -19 60 -13 33 -20 62 -15 65 5 3 11 1 14 -4 3 -5 22
-12 41 -15 19 -4 35 -12 35 -18 0 -6 3 -8 6 -5 4 4 16 -3 27 -16 11 -12 18
-15 15 -7 -23 68 -33 90 -40 90 -4 0 -8 6 -8 13 0 7 -18 30 -40 51 -22 21 -40
41 -40 46 0 8 108 18 116 11 3 -3 14 -6 25 -8 17 -3 18 -1 7 10 -7 7 -29 24
-48 37 -19 13 -38 28 -41 33 -3 5 -9 8 -13 7 -6 -1 -96 30 -105 37 -9 7 36 47
68 60 38 16 35 25 -11 28 -18 2 -33 4 -33 5 0 1 -17 3 -38 4 -20 0 -37 -1 -37
-5 0 -3 -18 -6 -40 -7 -39 -3 -40 -2 -28 23 6 14 17 25 24 25 6 0 14 7 17 15
5 11 1 12 -18 5 -15 -6 -27 -6 -30 0 -4 6 -28 -1 -56 -15 -46 -24 -49 -24 -37
-5 7 11 16 20 20 20 4 0 5 6 2 14 -4 12 -10 11 -37 -2 -47 -24 -103 -23 -151
2 -44 23 -128 101 -118 110 3 3 1 6 -5 6 -10 0 -19 19 -21 44 0 5 -5 12 -11
15 -28 18 -28 191 0 191 6 0 7 4 4 10 -3 5 17 32 45 59 36 36 46 50 35 55 -8
3 -17 1 -20 -3 -3 -5 -13 -7 -23 -5 -25 7 -86 -53 -116 -112 -14 -28 -28 -75
-31 -105 -4 -30 -8 -59 -10 -64 -4 -14 28 -141 46 -180 34 -76 130 -178 210
-223 27 -15 49 -30 49 -34 0 -5 8 -8 18 -8 9 0 29 -12 45 -25 24 -21 26 -27
15 -50 -15 -33 -28 -32 -74 10 -159 146 -214 199 -214 207 0 5 -8 18 -18 29
-11 10 -24 29 -29 42 -56 116 -64 151 -67 269 -1 81 -6 92 -37 94 -10 1 -20 2
-21 4 -2 1 -23 4 -48 6 -46 5 -114 33 -162 66 -16 11 -28 16 -28 12 0 -4 -9 1
-20 11 -11 10 -20 14 -20 9 0 -5 -4 -4 -8 1 -4 6 -18 16 -32 23 -14 7 -42 27
-62 45 -21 18 -50 41 -64 52 -14 11 -34 28 -42 38 -9 9 -20 17 -24 17 -12 0
-62 44 -141 125 -171 174 -197 202 -197 212 0 6 -7 16 -15 23 -9 7 -23 28 -31
46 -9 19 -21 34 -26 34 -5 0 -6 5 -3 10 3 6 2 10 -3 10 -17 0 -24 32 -28 135
-5 93 -7 101 -31 122 -15 12 -30 20 -34 17 -4 -2 -10 0 -13 5 -3 5 -27 20 -53
34 -111 58 -134 72 -153 89 -10 10 -23 18 -29 18 -5 0 -11 3 -13 8 -3 7 -95
72 -103 72 -5 0 -34 23 -59 45 -6 6 -41 32 -78 59 -38 26 -68 52 -68 57 0 5
-5 9 -10 9 -10 0 -206 146 -238 177 -8 7 -18 10 -24 7 -7 -4 -8 -2 -4 4 4 7 4
12 -1 12 -4 0 -21 12 -38 26 -16 14 -45 35 -65 46 -19 12 -37 25 -40 28 -3 3
-41 31 -85 61 -44 30 -81 57 -83 62 -2 4 -10 7 -17 7 -7 0 -15 4 -17 8 -5 13
-128 94 -128 85 0 -4 -4 -3 -8 3 -16 23 -336 190 -382 199 -10 2 -29 9 -42 16
-13 7 -36 14 -53 15 -16 1 -41 4 -55 8 -38 9 -112 13 -140 6z"/>
</g>
</svg>
